<svg xmlns="http://www.w3.org/2000/svg" xmlns:xlink="http://www.w3.org/1999/xlink" width="250" zoomAndPan="magnify" viewBox="0 0 187.5 74.999997" height="100" preserveAspectRatio="xMidYMid meet" version="1.0"><defs><g/><clipPath id="3fe3bbf49d"><path d="M 26.507812 5.035156 L 159 5.035156 L 159 24 L 26.507812 24 Z M 26.507812 5.035156 " clip-rule="nonzero"/></clipPath><clipPath id="773bafc786"><path d="M 116 21 L 160.480469 21 L 160.480469 31.546875 L 116 31.546875 Z M 116 21 " clip-rule="nonzero"/></clipPath></defs><g clip-path="url(#3fe3bbf49d)"><path fill="#000000" d="M 148.15625 18.546875 C 146.507812 18.238281 144.875 17.828125 143.265625 17.328125 C 141.664062 16.824219 140.074219 16.246094 138.503906 15.609375 C 136.9375 14.96875 135.378906 14.285156 133.816406 13.578125 L 129.089844 11.414062 C 127.496094 10.691406 125.875 9.980469 124.203125 9.304688 C 123.78125 9.136719 123.367188 8.964844 122.9375 8.804688 L 122.300781 8.5625 L 121.652344 8.328125 C 121.226562 8.167969 120.785156 8.023438 120.351562 7.871094 C 120.132812 7.796875 119.910156 7.726562 119.6875 7.65625 C 119.46875 7.582031 119.25 7.507812 119.023438 7.441406 C 118.574219 7.308594 118.128906 7.167969 117.671875 7.042969 C 117.445312 6.980469 117.21875 6.914062 116.988281 6.855469 L 116.300781 6.683594 C 115.839844 6.570312 115.382812 6.449219 114.914062 6.355469 L 114.214844 6.203125 C 113.984375 6.15625 113.75 6.101562 113.515625 6.0625 L 112.105469 5.808594 L 110.683594 5.597656 C 110.566406 5.582031 110.449219 5.5625 110.328125 5.546875 L 109.972656 5.507812 L 109.257812 5.421875 C 109.019531 5.394531 108.78125 5.363281 108.542969 5.34375 L 107.828125 5.28125 C 105.917969 5.113281 104 5.035156 102.089844 5.054688 C 100.179688 5.074219 98.28125 5.167969 96.398438 5.335938 C 92.632812 5.675781 88.945312 6.3125 85.363281 7.136719 C 81.785156 7.972656 78.308594 9 74.941406 10.179688 C 73.257812 10.773438 71.59375 11.394531 69.964844 12.054688 C 68.332031 12.714844 66.726562 13.40625 65.148438 14.132812 C 68.527344 13 71.933594 11.933594 75.398438 11.019531 C 78.855469 10.089844 82.371094 9.304688 85.921875 8.695312 C 87.699219 8.390625 89.488281 8.144531 91.277344 7.941406 C 92.171875 7.839844 93.070312 7.761719 93.964844 7.683594 L 95.3125 7.589844 C 95.761719 7.5625 96.210938 7.546875 96.660156 7.523438 C 98.457031 7.449219 100.25 7.433594 102.03125 7.492188 L 103.367188 7.554688 C 103.808594 7.582031 104.253906 7.617188 104.695312 7.648438 L 105.027344 7.675781 L 105.355469 7.707031 L 106.015625 7.769531 C 106.234375 7.792969 106.457031 7.808594 106.675781 7.835938 L 107.332031 7.917969 L 107.984375 8 C 108.203125 8.027344 108.417969 8.066406 108.636719 8.097656 L 109.609375 8.25 C 109.714844 8.265625 109.824219 8.289062 109.929688 8.308594 L 111.210938 8.546875 L 112.480469 8.824219 C 112.691406 8.867188 112.898438 8.925781 113.105469 8.976562 L 113.730469 9.132812 C 114.152344 9.230469 114.558594 9.355469 114.96875 9.472656 L 115.582031 9.644531 C 115.785156 9.707031 115.988281 9.773438 116.1875 9.835938 C 116.59375 9.960938 116.992188 10.101562 117.394531 10.234375 C 120.597656 11.34375 123.65625 12.757812 126.726562 14.246094 C 129.796875 15.734375 132.886719 17.300781 136.207031 18.714844 C 136.839844 18.984375 137.480469 19.246094 138.132812 19.503906 C 136.171875 19.652344 134.199219 19.769531 132.222656 19.851562 L 130.347656 19.921875 L 128.46875 19.964844 C 127.84375 19.984375 127.214844 19.984375 126.589844 19.992188 L 125.648438 20.003906 C 125.335938 20.007812 125.019531 20.003906 124.707031 20.003906 C 122.195312 20.015625 119.679688 19.960938 117.164062 19.886719 C 114.644531 19.8125 112.125 19.695312 109.601562 19.554688 C 107.082031 19.414062 104.558594 19.253906 102.03125 19.070312 C 96.980469 18.707031 91.921875 18.269531 86.851562 17.84375 C 81.777344 17.414062 76.691406 16.988281 71.582031 16.640625 L 69.667969 16.515625 C 69.027344 16.472656 68.386719 16.433594 67.746094 16.394531 C 66.46875 16.320312 65.183594 16.253906 63.898438 16.195312 C 63.253906 16.164062 62.609375 16.144531 61.964844 16.117188 L 60.03125 16.054688 C 59.382812 16.042969 58.738281 16.03125 58.09375 16.023438 L 57.121094 16.015625 C 56.796875 16.011719 56.476562 16.011719 56.152344 16.015625 C 55.503906 16.019531 54.855469 16.019531 54.207031 16.035156 L 53.238281 16.050781 C 52.914062 16.058594 52.589844 16.074219 52.265625 16.085938 L 51.292969 16.121094 L 50.324219 16.171875 C 49.675781 16.203125 49.03125 16.253906 48.386719 16.296875 C 45.800781 16.484375 43.234375 16.796875 40.707031 17.238281 C 38.183594 17.691406 35.707031 18.285156 33.332031 19.042969 C 30.957031 19.796875 28.675781 20.710938 26.570312 21.800781 C 31.121094 20.046875 36.03125 18.953125 41.007812 18.40625 C 45.992188 17.851562 51.042969 17.84375 56.070312 18.070312 C 56.382812 18.082031 56.699219 18.101562 57.015625 18.117188 L 57.957031 18.171875 C 58.585938 18.207031 59.214844 18.257812 59.84375 18.296875 L 61.726562 18.4375 C 62.355469 18.488281 62.984375 18.539062 63.613281 18.59375 C 64.871094 18.707031 66.128906 18.824219 67.386719 18.953125 C 68.644531 19.074219 69.90625 19.207031 71.164062 19.339844 C 76.203125 19.875 81.242188 20.453125 86.296875 21.019531 C 96.402344 22.140625 106.597656 23.195312 116.933594 23.59375 C 122.101562 23.796875 127.300781 23.824219 132.5 23.609375 C 135.101562 23.496094 137.703125 23.335938 140.292969 23.089844 C 142.886719 22.847656 145.46875 22.53125 148.035156 22.148438 L 158.75 20.539062 Z M 148.15625 18.546875 " fill-opacity="1" fill-rule="nonzero"/></g><g clip-path="url(#773bafc786)"><path fill="#ff1616" d="M 119.726562 29.511719 C 123.71875 30.382812 127.769531 31.027344 131.839844 31.402344 C 136.945312 31.867188 142.144531 31.933594 147.21875 31.117188 C 149.683594 30.71875 152.128906 30.101562 154.441406 29.144531 C 156.339844 28.359375 159.929688 27.082031 160.269531 24.722656 C 160.390625 23.886719 160.425781 22.625 159.371094 21.972656 C 158.019531 21.132812 156.203125 21.980469 154.933594 22.460938 C 153.421875 23.035156 151.929688 23.648438 150.292969 24.09375 C 148.25 24.652344 146.140625 25.121094 144.003906 25.53125 C 141.601562 25.996094 139.152344 26.417969 136.679688 26.730469 C 137.898438 26.929688 139.925781 27.207031 141.023438 27.34375 C 142.335938 27.503906 143.65625 27.648438 144.980469 27.761719 C 146.375 27.882812 147.8125 27.972656 149.253906 28.023438 C 142.839844 29.308594 131.914062 30.4375 116.023438 28.613281 C 117.273438 28.933594 118.519531 29.246094 119.726562 29.511719 Z M 119.726562 29.511719 " fill-opacity="1" fill-rule="nonzero"/></g><g fill="#000000" fill-opacity="1"><g transform="translate(58.665503, 53.384765)"><g><path d="M 8.328125 -18.671875 C 8.710938 -18.753906 9.203125 -18.796875 9.796875 -18.796875 C 10.015625 -18.796875 10.257812 -18.785156 10.53125 -18.765625 C 11.53125 -18.742188 12.375 -18.609375 13.0625 -18.359375 C 13.757812 -18.117188 14.347656 -17.847656 14.828125 -17.546875 C 15.304688 -17.253906 15.8125 -16.84375 16.34375 -16.3125 C 17.34375 -15.3125 18.109375 -13.9375 18.640625 -12.1875 C 18.804688 -11.550781 18.910156 -11.078125 18.953125 -10.765625 C 18.992188 -10.460938 19.015625 -9.8125 19.015625 -8.8125 C 19.015625 -7.894531 18.992188 -7.253906 18.953125 -6.890625 C 18.910156 -6.535156 18.828125 -6.085938 18.703125 -5.546875 C 18.378906 -4.316406 17.894531 -3.226562 17.25 -2.28125 C 16.601562 -1.332031 15.875 -0.582031 15.0625 -0.03125 C 14.34375 0.4375 13.507812 0.796875 12.5625 1.046875 C 11.613281 1.304688 10.679688 1.4375 9.765625 1.4375 C 8.578125 1.414062 7.378906 1.144531 6.171875 0.625 C 4.972656 0.101562 4.035156 -0.53125 3.359375 -1.28125 C 2.734375 -2.0625 2.21875 -3.066406 1.8125 -4.296875 C 1.414062 -5.535156 1.21875 -6.804688 1.21875 -8.109375 C 1.21875 -10.828125 1.851562 -13.132812 3.125 -15.03125 C 4.40625 -16.925781 6.140625 -18.140625 8.328125 -18.671875 Z M 11.203125 -15.125 C 10.835938 -15.226562 10.488281 -15.28125 10.15625 -15.28125 C 9.625 -15.28125 9.046875 -15.113281 8.421875 -14.78125 C 7.804688 -14.457031 7.285156 -13.804688 6.859375 -12.828125 C 6.265625 -11.640625 5.96875 -10.289062 5.96875 -8.78125 C 5.96875 -8.476562 6.015625 -7.769531 6.109375 -6.65625 C 6.203125 -5.539062 6.695312 -4.472656 7.59375 -3.453125 C 8.300781 -2.660156 9.097656 -2.265625 9.984375 -2.265625 C 10.203125 -2.265625 10.664062 -2.34375 11.375 -2.5 C 12.09375 -2.664062 12.789062 -3.4375 13.46875 -4.8125 C 13.976562 -5.863281 14.234375 -7.1875 14.234375 -8.78125 C 14.234375 -8.863281 14.222656 -9.359375 14.203125 -10.265625 C 14.179688 -11.171875 13.894531 -12.15625 13.34375 -13.21875 C 13.101562 -13.664062 12.78125 -14.0625 12.375 -14.40625 C 11.976562 -14.757812 11.585938 -15 11.203125 -15.125 Z M 11.203125 -15.125 "/></g></g></g><g fill="#000000" fill-opacity="1"><g transform="translate(77.362869, 53.384765)"><g><path d="M 12.703125 -18.390625 C 13.960938 -18.597656 14.75 -18.722656 15.0625 -18.765625 C 15.164062 -18.765625 15.242188 -18.675781 15.296875 -18.5 C 15.359375 -18.332031 15.503906 -17.757812 15.734375 -16.78125 C 15.878906 -16.101562 16.039062 -15.476562 16.21875 -14.90625 C 16.363281 -14.5 16.4375 -14.242188 16.4375 -14.140625 C 16.4375 -14.117188 16.4375 -14.109375 16.4375 -14.109375 C 16.4375 -14.085938 16.363281 -14.078125 16.21875 -14.078125 C 15.9375 -14.078125 15.394531 -14.109375 14.59375 -14.171875 C 14.070312 -14.191406 13.421875 -14.203125 12.640625 -14.203125 C 12.066406 -14.203125 11.171875 -14.191406 9.953125 -14.171875 C 8.742188 -14.148438 8.097656 -14.109375 8.015625 -14.046875 C 8.015625 -14.046875 8.015625 -14.035156 8.015625 -14.015625 C 8.015625 -13.953125 8.25 -13.890625 8.71875 -13.828125 C 8.988281 -13.796875 9.347656 -13.769531 9.796875 -13.75 C 10.484375 -13.6875 10.859375 -13.613281 10.921875 -13.53125 C 10.960938 -13.507812 10.984375 -13.382812 10.984375 -13.15625 C 10.984375 -12.9375 10.960938 -12.601562 10.921875 -12.15625 C 10.859375 -11.394531 10.828125 -10.40625 10.828125 -9.1875 C 10.828125 -8.039062 10.867188 -6.265625 10.953125 -3.859375 C 11.035156 -1.453125 11.179688 0.207031 11.390625 1.125 C 11.390625 1.164062 11.390625 1.207031 11.390625 1.25 C 11.390625 1.3125 11.375 1.351562 11.34375 1.375 C 11.3125 1.394531 11.171875 1.40625 10.921875 1.40625 C 10.617188 1.40625 9.945312 1.320312 8.90625 1.15625 C 7.800781 1.019531 7.035156 0.929688 6.609375 0.890625 L 5.8125 0.796875 L 5.875 0.421875 C 6.082031 -0.734375 6.21875 -3.148438 6.28125 -6.828125 C 6.28125 -7.929688 6.28125 -8.878906 6.28125 -9.671875 C 6.28125 -11.285156 6.269531 -12.304688 6.25 -12.734375 L 6.15625 -13.921875 L 5.546875 -13.921875 C 5.054688 -13.898438 4.28125 -13.820312 3.21875 -13.6875 L 1.5 -13.46875 L 1.4375 -13.75 C 1.394531 -13.945312 1.300781 -14.445312 1.15625 -15.25 C 1.019531 -15.976562 0.878906 -16.585938 0.734375 -17.078125 L 0.578125 -17.65625 C 0.804688 -17.65625 1.015625 -17.660156 1.203125 -17.671875 C 1.398438 -17.679688 1.625 -17.6875 1.875 -17.6875 C 2.132812 -17.6875 2.425781 -17.691406 2.75 -17.703125 C 3.082031 -17.710938 3.410156 -17.71875 3.734375 -17.71875 C 7.347656 -17.800781 10.335938 -18.023438 12.703125 -18.390625 Z M 12.703125 -18.390625 "/></g></g></g><g fill="#000000" fill-opacity="1"><g transform="translate(92.724671, 53.384765)"><g><path d="M 12.703125 -18.390625 C 13.960938 -18.597656 14.75 -18.722656 15.0625 -18.765625 C 15.164062 -18.765625 15.242188 -18.675781 15.296875 -18.5 C 15.359375 -18.332031 15.503906 -17.757812 15.734375 -16.78125 C 15.878906 -16.101562 16.039062 -15.476562 16.21875 -14.90625 C 16.363281 -14.5 16.4375 -14.242188 16.4375 -14.140625 C 16.4375 -14.117188 16.4375 -14.109375 16.4375 -14.109375 C 16.4375 -14.085938 16.363281 -14.078125 16.21875 -14.078125 C 15.9375 -14.078125 15.394531 -14.109375 14.59375 -14.171875 C 14.070312 -14.191406 13.421875 -14.203125 12.640625 -14.203125 C 12.066406 -14.203125 11.171875 -14.191406 9.953125 -14.171875 C 8.742188 -14.148438 8.097656 -14.109375 8.015625 -14.046875 C 8.015625 -14.046875 8.015625 -14.035156 8.015625 -14.015625 C 8.015625 -13.953125 8.25 -13.890625 8.71875 -13.828125 C 8.988281 -13.796875 9.347656 -13.769531 9.796875 -13.75 C 10.484375 -13.6875 10.859375 -13.613281 10.921875 -13.53125 C 10.960938 -13.507812 10.984375 -13.382812 10.984375 -13.15625 C 10.984375 -12.9375 10.960938 -12.601562 10.921875 -12.15625 C 10.859375 -11.394531 10.828125 -10.40625 10.828125 -9.1875 C 10.828125 -8.039062 10.867188 -6.265625 10.953125 -3.859375 C 11.035156 -1.453125 11.179688 0.207031 11.390625 1.125 C 11.390625 1.164062 11.390625 1.207031 11.390625 1.25 C 11.390625 1.3125 11.375 1.351562 11.34375 1.375 C 11.3125 1.394531 11.171875 1.40625 10.921875 1.40625 C 10.617188 1.40625 9.945312 1.320312 8.90625 1.15625 C 7.800781 1.019531 7.035156 0.929688 6.609375 0.890625 L 5.8125 0.796875 L 5.875 0.421875 C 6.082031 -0.734375 6.21875 -3.148438 6.28125 -6.828125 C 6.28125 -7.929688 6.28125 -8.878906 6.28125 -9.671875 C 6.28125 -11.285156 6.269531 -12.304688 6.25 -12.734375 L 6.15625 -13.921875 L 5.546875 -13.921875 C 5.054688 -13.898438 4.28125 -13.820312 3.21875 -13.6875 L 1.5 -13.46875 L 1.4375 -13.75 C 1.394531 -13.945312 1.300781 -14.445312 1.15625 -15.25 C 1.019531 -15.976562 0.878906 -16.585938 0.734375 -17.078125 L 0.578125 -17.65625 C 0.804688 -17.65625 1.015625 -17.660156 1.203125 -17.671875 C 1.398438 -17.679688 1.625 -17.6875 1.875 -17.6875 C 2.132812 -17.6875 2.425781 -17.691406 2.75 -17.703125 C 3.082031 -17.710938 3.410156 -17.71875 3.734375 -17.71875 C 7.347656 -17.800781 10.335938 -18.023438 12.703125 -18.390625 Z M 12.703125 -18.390625 "/></g></g></g><g fill="#000000" fill-opacity="1"><g transform="translate(108.086473, 53.384765)"><g><path d="M 8.328125 -18.671875 C 8.710938 -18.753906 9.203125 -18.796875 9.796875 -18.796875 C 10.015625 -18.796875 10.257812 -18.785156 10.53125 -18.765625 C 11.53125 -18.742188 12.375 -18.609375 13.0625 -18.359375 C 13.757812 -18.117188 14.347656 -17.847656 14.828125 -17.546875 C 15.304688 -17.253906 15.8125 -16.84375 16.34375 -16.3125 C 17.34375 -15.3125 18.109375 -13.9375 18.640625 -12.1875 C 18.804688 -11.550781 18.910156 -11.078125 18.953125 -10.765625 C 18.992188 -10.460938 19.015625 -9.8125 19.015625 -8.8125 C 19.015625 -7.894531 18.992188 -7.253906 18.953125 -6.890625 C 18.910156 -6.535156 18.828125 -6.085938 18.703125 -5.546875 C 18.378906 -4.316406 17.894531 -3.226562 17.25 -2.28125 C 16.601562 -1.332031 15.875 -0.582031 15.0625 -0.03125 C 14.34375 0.4375 13.507812 0.796875 12.5625 1.046875 C 11.613281 1.304688 10.679688 1.4375 9.765625 1.4375 C 8.578125 1.414062 7.378906 1.144531 6.171875 0.625 C 4.972656 0.101562 4.035156 -0.53125 3.359375 -1.28125 C 2.734375 -2.0625 2.21875 -3.066406 1.8125 -4.296875 C 1.414062 -5.535156 1.21875 -6.804688 1.21875 -8.109375 C 1.21875 -10.828125 1.851562 -13.132812 3.125 -15.03125 C 4.40625 -16.925781 6.140625 -18.140625 8.328125 -18.671875 Z M 11.203125 -15.125 C 10.835938 -15.226562 10.488281 -15.28125 10.15625 -15.28125 C 9.625 -15.28125 9.046875 -15.113281 8.421875 -14.78125 C 7.804688 -14.457031 7.285156 -13.804688 6.859375 -12.828125 C 6.265625 -11.640625 5.96875 -10.289062 5.96875 -8.78125 C 5.96875 -8.476562 6.015625 -7.769531 6.109375 -6.65625 C 6.203125 -5.539062 6.695312 -4.472656 7.59375 -3.453125 C 8.300781 -2.660156 9.097656 -2.265625 9.984375 -2.265625 C 10.203125 -2.265625 10.664062 -2.34375 11.375 -2.5 C 12.09375 -2.664062 12.789062 -3.4375 13.46875 -4.8125 C 13.976562 -5.863281 14.234375 -7.1875 14.234375 -8.78125 C 14.234375 -8.863281 14.222656 -9.359375 14.203125 -10.265625 C 14.179688 -11.171875 13.894531 -12.15625 13.34375 -13.21875 C 13.101562 -13.664062 12.78125 -14.0625 12.375 -14.40625 C 11.976562 -14.757812 11.585938 -15 11.203125 -15.125 Z M 11.203125 -15.125 "/></g></g></g><g fill="#ff1616" fill-opacity="1"><g transform="translate(59.814242, 67.667665)"><g><path d="M 5.65625 -3.453125 L 6.425781 -3.453125 C 6.519531 -3.453125 6.597656 -3.535156 6.597656 -3.625 L 6.597656 -4.328125 C 6.597656 -4.441406 6.554688 -4.542969 6.472656 -4.625 L 5.464844 -5.65625 C 5.371094 -5.75 5.269531 -5.796875 5.117188 -5.796875 L 1.847656 -5.796875 C 1.710938 -5.796875 1.617188 -5.761719 1.515625 -5.65625 L 0.480469 -4.625 C 0.414062 -4.554688 0.34375 -4.441406 0.34375 -4.328125 L 0.34375 -1.410156 C 0.34375 -1.296875 0.414062 -1.183594 0.480469 -1.113281 L 1.515625 -0.0820312 C 1.617188 0.0234375 1.710938 0.0585938 1.847656 0.0585938 L 5.117188 0.0585938 C 5.269531 0.0585938 5.371094 0.0117188 5.464844 -0.0820312 L 6.472656 -1.113281 C 6.554688 -1.195312 6.597656 -1.296875 6.597656 -1.410156 L 6.597656 -2.113281 C 6.597656 -2.203125 6.519531 -2.285156 6.425781 -2.285156 L 5.65625 -2.285156 C 5.566406 -2.285156 5.484375 -2.203125 5.484375 -2.113281 L 5.484375 -1.710938 C 5.484375 -1.628906 5.472656 -1.574219 5.40625 -1.515625 L 5.039062 -1.171875 C 4.980469 -1.113281 4.933594 -1.078125 4.855469 -1.078125 L 2.167969 -1.078125 C 2.113281 -1.078125 2.066406 -1.101562 1.996094 -1.171875 L 1.628906 -1.515625 C 1.574219 -1.574219 1.550781 -1.628906 1.550781 -1.710938 L 1.550781 -4.027344 C 1.550781 -4.109375 1.574219 -4.167969 1.628906 -4.222656 L 1.996094 -4.566406 C 2.066406 -4.636719 2.113281 -4.660156 2.167969 -4.660156 L 4.855469 -4.660156 C 4.933594 -4.660156 4.980469 -4.625 5.039062 -4.566406 L 5.40625 -4.222656 C 5.472656 -4.167969 5.484375 -4.109375 5.484375 -4.027344 L 5.484375 -3.625 C 5.484375 -3.535156 5.566406 -3.453125 5.65625 -3.453125 Z M 5.65625 -3.453125 "/></g></g></g><g fill="#ff1616" fill-opacity="1"><g transform="translate(69.052978, 67.667665)"><g><path d="M 6.472656 -4.566406 L 5.464844 -5.601562 C 5.371094 -5.691406 5.269531 -5.738281 5.117188 -5.738281 L 1.824219 -5.738281 C 1.675781 -5.738281 1.574219 -5.691406 1.480469 -5.601562 L 0.46875 -4.566406 C 0.390625 -4.488281 0.34375 -4.382812 0.34375 -4.269531 L 0.34375 -0.171875 C 0.34375 -0.0820312 0.425781 0 0.515625 0 L 1.285156 0 C 1.378906 0 1.457031 -0.0820312 1.457031 -0.171875 L 1.457031 -1.882812 L 5.484375 -1.882812 L 5.484375 -0.171875 C 5.484375 -0.0820312 5.566406 0 5.65625 0 L 6.425781 0 C 6.519531 0 6.597656 -0.0820312 6.597656 -0.171875 L 6.597656 -4.269531 C 6.597656 -4.382812 6.554688 -4.488281 6.472656 -4.566406 Z M 1.457031 -2.878906 L 1.457031 -3.972656 C 1.457031 -4.050781 1.480469 -4.109375 1.539062 -4.167969 L 1.90625 -4.511719 L 1.972656 -4.566406 C 1.996094 -4.589844 2.03125 -4.601562 2.089844 -4.601562 L 4.855469 -4.601562 C 4.902344 -4.601562 4.933594 -4.589844 4.96875 -4.566406 L 5.039062 -4.511719 L 5.40625 -4.167969 C 5.464844 -4.109375 5.484375 -4.050781 5.484375 -3.972656 L 5.484375 -2.878906 Z M 1.457031 -2.878906 "/></g></g></g><g fill="#ff1616" fill-opacity="1"><g transform="translate(78.291713, 67.667665)"><g><path d="M 6.632812 -4.601562 L 5.601562 -5.613281 C 5.519531 -5.691406 5.417969 -5.738281 5.300781 -5.738281 L 0.515625 -5.738281 C 0.425781 -5.738281 0.34375 -5.65625 0.34375 -5.566406 L 0.34375 -0.171875 C 0.34375 -0.0820312 0.425781 0 0.515625 0 L 1.308594 0 C 1.398438 0 1.480469 -0.0820312 1.480469 -0.171875 L 1.480469 -1.261719 L 4.589844 -1.261719 L 5.300781 -0.101562 C 5.347656 -0.0351562 5.40625 0 5.472656 0 L 6.335938 0 C 6.472656 0 6.542969 -0.125 6.472656 -0.242188 L 5.691406 -1.492188 L 6.632812 -2.433594 C 6.703125 -2.5 6.769531 -2.617188 6.769531 -2.730469 L 6.769531 -4.257812 C 6.769531 -4.40625 6.726562 -4.511719 6.632812 -4.601562 Z M 1.480469 -4.625 L 4.933594 -4.625 C 5.015625 -4.625 5.074219 -4.601562 5.128906 -4.542969 L 5.472656 -4.175781 L 5.53125 -4.109375 C 5.554688 -4.074219 5.566406 -4.039062 5.566406 -3.992188 L 5.566406 -3.03125 C 5.566406 -2.949219 5.542969 -2.890625 5.484375 -2.835938 L 5.117188 -2.492188 C 5.050781 -2.421875 5.003906 -2.398438 4.945312 -2.398438 L 1.480469 -2.398438 Z M 1.480469 -4.625 "/></g></g></g><g fill="#ff1616" fill-opacity="1"><g transform="translate(87.702602, 67.667665)"><g/></g></g><g fill="#ff1616" fill-opacity="1"><g transform="translate(92.98188, 67.667665)"><g><path d="M 0.34375 -3.582031 C 0.34375 -3.429688 0.390625 -3.328125 0.480469 -3.238281 L 1.285156 -2.457031 C 1.367188 -2.386719 1.46875 -2.328125 1.582031 -2.328125 L 4.992188 -2.328125 C 5.074219 -2.328125 5.128906 -2.308594 5.1875 -2.25 L 5.359375 -2.042969 C 5.382812 -2.007812 5.394531 -1.972656 5.394531 -1.929688 L 5.394531 -1.652344 C 5.394531 -1.574219 5.371094 -1.515625 5.3125 -1.457031 L 5.0625 -1.226562 C 4.992188 -1.171875 4.945312 -1.136719 4.890625 -1.136719 L 0.710938 -1.136719 C 0.621094 -1.136719 0.539062 -1.054688 0.539062 -0.964844 L 0.539062 -0.171875 C 0.539062 -0.0820312 0.621094 0 0.710938 0 L 5.210938 0 C 5.347656 0 5.441406 -0.0351562 5.542969 -0.136719 L 6.460938 -1.054688 C 6.53125 -1.125 6.597656 -1.238281 6.597656 -1.355469 L 6.597656 -2.308594 C 6.597656 -2.457031 6.554688 -2.570312 6.460938 -2.652344 L 5.773438 -3.316406 C 5.691406 -3.386719 5.589844 -3.441406 5.472656 -3.441406 L 1.949219 -3.441406 C 1.871094 -3.441406 1.8125 -3.464844 1.757812 -3.523438 L 1.582031 -3.730469 C 1.5625 -3.765625 1.550781 -3.796875 1.550781 -3.84375 L 1.550781 -4.085938 C 1.550781 -4.167969 1.574219 -4.222656 1.628906 -4.28125 L 1.882812 -4.511719 C 1.949219 -4.566406 1.996094 -4.601562 2.054688 -4.601562 L 6.117188 -4.601562 C 6.207031 -4.601562 6.289062 -4.683594 6.289062 -4.773438 L 6.289062 -5.566406 C 6.289062 -5.65625 6.207031 -5.738281 6.117188 -5.738281 L 1.734375 -5.738281 C 1.59375 -5.738281 1.503906 -5.703125 1.398438 -5.601562 L 0.480469 -4.683594 C 0.414062 -4.613281 0.34375 -4.5 0.34375 -4.382812 Z M 0.34375 -3.582031 "/></g></g></g><g fill="#ff1616" fill-opacity="1"><g transform="translate(102.220616, 67.667665)"><g><path d="M 6.472656 -4.566406 L 5.464844 -5.601562 C 5.371094 -5.691406 5.269531 -5.738281 5.117188 -5.738281 L 1.824219 -5.738281 C 1.675781 -5.738281 1.574219 -5.691406 1.480469 -5.601562 L 0.46875 -4.566406 C 0.390625 -4.488281 0.34375 -4.382812 0.34375 -4.269531 L 0.34375 -0.171875 C 0.34375 -0.0820312 0.425781 0 0.515625 0 L 1.285156 0 C 1.378906 0 1.457031 -0.0820312 1.457031 -0.171875 L 1.457031 -1.882812 L 5.484375 -1.882812 L 5.484375 -0.171875 C 5.484375 -0.0820312 5.566406 0 5.65625 0 L 6.425781 0 C 6.519531 0 6.597656 -0.0820312 6.597656 -0.171875 L 6.597656 -4.269531 C 6.597656 -4.382812 6.554688 -4.488281 6.472656 -4.566406 Z M 1.457031 -2.878906 L 1.457031 -3.972656 C 1.457031 -4.050781 1.480469 -4.109375 1.539062 -4.167969 L 1.90625 -4.511719 L 1.972656 -4.566406 C 1.996094 -4.589844 2.03125 -4.601562 2.089844 -4.601562 L 4.855469 -4.601562 C 4.902344 -4.601562 4.933594 -4.589844 4.96875 -4.566406 L 5.039062 -4.511719 L 5.40625 -4.167969 C 5.464844 -4.109375 5.484375 -4.050781 5.484375 -3.972656 L 5.484375 -2.878906 Z M 1.457031 -2.878906 "/></g></g></g><g fill="#ff1616" fill-opacity="1"><g transform="translate(111.459352, 67.667665)"><g><path d="M 0.34375 -5.566406 L 0.34375 -1.46875 C 0.34375 -1.355469 0.414062 -1.238281 0.480469 -1.171875 L 1.515625 -0.136719 C 1.617188 -0.0351562 1.710938 0 1.847656 0 L 6.082031 0 C 6.175781 0 6.253906 -0.0820312 6.253906 -0.171875 L 6.253906 -0.964844 C 6.253906 -1.054688 6.175781 -1.136719 6.082031 -1.136719 L 2.226562 -1.136719 C 2.167969 -1.136719 2.125 -1.160156 2.054688 -1.226562 L 1.628906 -1.628906 C 1.574219 -1.6875 1.550781 -1.746094 1.550781 -1.824219 L 1.550781 -5.566406 C 1.550781 -5.65625 1.46875 -5.738281 1.378906 -5.738281 L 0.515625 -5.738281 C 0.425781 -5.738281 0.34375 -5.65625 0.34375 -5.566406 Z M 0.34375 -5.566406 "/></g></g></g><g fill="#ff1616" fill-opacity="1"><g transform="translate(120.353784, 67.667665)"><g><path d="M 1.628906 -4.167969 L 1.996094 -4.511719 C 2.066406 -4.578125 2.113281 -4.601562 2.167969 -4.601562 L 6.3125 -4.601562 C 6.402344 -4.601562 6.484375 -4.683594 6.484375 -4.773438 L 6.484375 -5.566406 C 6.484375 -5.65625 6.402344 -5.738281 6.3125 -5.738281 L 1.789062 -5.738281 C 1.652344 -5.738281 1.5625 -5.703125 1.457031 -5.601562 L 0.480469 -4.625 C 0.414062 -4.554688 0.34375 -4.441406 0.34375 -4.328125 L 0.34375 -1.421875 C 0.34375 -1.273438 0.390625 -1.171875 0.480469 -1.078125 L 1.457031 -0.125 C 1.539062 -0.046875 1.640625 0 1.757812 0 L 6.3125 0 C 6.402344 0 6.484375 -0.0820312 6.484375 -0.171875 L 6.484375 -0.941406 C 6.484375 -1.03125 6.402344 -1.113281 6.3125 -1.113281 L 2.179688 -1.113281 C 2.101562 -1.113281 2.042969 -1.136719 1.984375 -1.195312 L 1.582031 -1.628906 C 1.5625 -1.664062 1.550781 -1.699219 1.550781 -1.746094 L 1.550781 -2.339844 L 5.75 -2.339844 C 5.839844 -2.339844 5.921875 -2.421875 5.921875 -2.511719 L 5.921875 -3.304688 C 5.921875 -3.398438 5.839844 -3.476562 5.75 -3.476562 L 1.550781 -3.476562 L 1.550781 -3.972656 C 1.550781 -4.050781 1.574219 -4.109375 1.628906 -4.167969 Z M 1.628906 -4.167969 "/></g></g></g></svg>