<?xml version="1.0" encoding="iso-8859-1"?>
<!-- Uploaded to: SVG Repo, www.svgrepo.com, Generator: SVG Repo Mixer Tools -->
<svg height="800px" width="800px" version="1.1" id="Layer_1" xmlns="http://www.w3.org/2000/svg" xmlns:xlink="http://www.w3.org/1999/xlink" 
	 viewBox="0 0 408.759 408.759" xml:space="preserve">
<g>
	<path style="fill:#FFBE00;" d="M408.759,204.375c0,58.121-24.868,113.673-68.227,152.417
		c-37.475,33.507-85.829,51.962-136.153,51.962C91.683,408.754,0,317.069,0,204.375c0-50.319,18.453-98.676,51.964-136.164
		C90.725,24.863,146.278,0.004,204.379,0.004C317.074,0.004,408.759,91.683,408.759,204.375"/>
	<path style="fill:#F4502A;" d="M377.758,204.369c0,7.889-0.53,15.65-1.549,23.249c-1.66,12.38-4.62,24.351-8.749,35.751
		c-6.62,18.291-16.221,35.13-28.231,49.96c-5.88,7.29-12.359,14.099-19.349,20.339c-0.29,0.271-0.591,0.53-0.881,0.801
		c-13.03,11.49-27.81,21.05-43.87,28.229c-10.19,4.57-20.9,8.169-32.03,10.71c-12.45,2.84-25.41,4.34-38.72,4.34
		c-95.749,0-173.38-77.619-173.38-173.38c0-43.95,16.35-84.071,43.29-114.631c0.27-0.279,0.53-0.589,0.788-0.879
		c24.34-27.21,57.131-46.701,94.261-54.311c11.32-2.329,23.04-3.549,35.04-3.549c18.08,0,35.52,2.77,51.901,7.909
		c65.09,20.39,113.66,78.11,120.609,148.081C377.468,192.719,377.758,198.499,377.758,204.369"/>
	<path style="fill:#BA3D20;" d="M175.699,71.619l-48.42,89.639l70.46,166.791l45.36,45.36c11.13-2.541,21.84-6.14,32.03-10.71
		c16.06-7.18,30.84-16.74,43.87-28.229c0.29-0.271,0.591-0.53,0.881-0.801c6.989-6.24,13.469-13.048,19.349-20.339
		c12.01-14.83,21.611-31.67,28.231-49.96L175.699,71.619"/>
	<path style="fill:#1CA4BA;" d="M249.181,338.058l-37.246-1.985c-5.728-0.307-10.98-3.278-14.196-8.028l-7.322-10.814
		c-35.781-52.846-62.787-128.833-68.387-192.409l-1.14-13.006c-0.503-5.714,1.696-11.334,5.945-15.187l27.639-25.046l2.374,17.405
		l-0.002,0.018l8.427,61.863l0.232,0.416l-13.574,7.572c1.233,17.081,6.375,38.344,13.656,58.843
		c7.289,20.496,16.719,40.236,26.542,54.264l15.311-2.698l0.082,0.469L249.181,338.058z"/>
	<polygon style="fill:#FFFFFF;" points="265.624,324.637 249.181,338.058 207.524,269.735 207.442,269.266 230.132,265.276 	"/>
	<polygon style="fill:#FFFFFF;" points="175.7,71.618 185.631,140.063 165.507,151.285 165.274,150.869 154.475,71.583 	"/>
	<path style="fill:#C29100;" d="M83.011,328.185c0.039,0.038,0.075,0.073,0.114,0.111C83.086,328.259,83.05,328.223,83.011,328.185
		 M82.577,327.758c0.079,0.078,0.154,0.152,0.233,0.23C82.733,327.912,82.654,327.834,82.577,327.758 M82.167,327.352
		c0.109,0.108,0.216,0.214,0.325,0.322C82.383,327.567,82.274,327.458,82.167,327.352 M31.149,211.635
		c1.861,45.171,20.998,85.878,50.99,115.689C52.151,297.51,33.009,256.808,31.149,211.635 M31.127,211.076
		c0.007,0.183,0.014,0.363,0.022,0.546C31.141,211.436,31.134,211.261,31.127,211.076 M31.106,210.516
		c0.006,0.183,0.013,0.368,0.02,0.551C31.119,210.881,31.113,210.701,31.106,210.516 M31.072,209.426
		c0.01,0.364,0.022,0.726,0.035,1.09C31.093,210.151,31.082,209.792,31.072,209.426 M31.056,208.866
		c0.004,0.174,0.009,0.349,0.014,0.523C31.066,209.214,31.061,209.04,31.056,208.866 M31.043,208.311
		c0.004,0.174,0.008,0.342,0.012,0.516C31.051,208.652,31.047,208.485,31.043,208.311 M31.031,207.735
		c0.003,0.174,0.007,0.345,0.011,0.519C31.038,208.08,31.035,207.91,31.031,207.735 M31.014,206.646
		c0.005,0.359,0.01,0.71,0.017,1.068C31.024,207.359,31.019,207.001,31.014,206.646 M31.008,206.1
		c0.002,0.165,0.003,0.328,0.005,0.493C31.011,206.429,31.009,206.263,31.008,206.1 M31.003,205.526
		c0.001,0.162,0.002,0.324,0.004,0.485C31.005,205.848,31.004,205.69,31.003,205.526 M31,204.95
		c0.001,0.165,0.001,0.333,0.002,0.498C31.002,205.279,31.001,205.119,31,204.95 M30.999,204.369c0,0.175,0,0.346,0.001,0.521
		C31,204.715,30.999,204.545,30.999,204.369 M31.001,203.646c0,0.058-0.001,0.127-0.001,0.186
		C31,203.77,31.001,203.707,31.001,203.646 M31.004,203.075c-0.001,0.076-0.001,0.141-0.002,0.217
		C31.003,203.22,31.004,203.148,31.004,203.075 M31.009,202.521c-0.001,0.082-0.002,0.153-0.002,0.235
		C31.007,202.678,31.008,202.599,31.009,202.521 M31.015,201.985c-0.001,0.076-0.002,0.153-0.003,0.229
		C31.013,202.137,31.014,202.063,31.015,201.985 M31.024,201.444c-0.001,0.076-0.003,0.153-0.004,0.229
		C31.021,201.598,31.022,201.518,31.024,201.444 M31.033,200.904c-0.001,0.076-0.003,0.153-0.004,0.229
		C31.03,201.055,31.032,200.981,31.033,200.904 M31.045,200.365c-0.002,0.076-0.003,0.152-0.005,0.228
		C31.041,200.518,31.043,200.439,31.045,200.365 M31.057,199.835c-0.002,0.064-0.003,0.139-0.005,0.203
		C31.054,199.971,31.056,199.902,31.057,199.835 M31.072,199.296c-0.002,0.058-0.003,0.126-0.005,0.184
		C31.069,199.419,31.07,199.357,31.072,199.296 M31.088,198.761c-0.001,0.046-0.003,0.096-0.004,0.143
		C31.085,198.856,31.087,198.809,31.088,198.761 M31.106,198.221c0,0.012-0.001,0.029-0.001,0.041
		C31.105,198.249,31.106,198.234,31.106,198.221 M31.13,197.587c-0.001,0.035-0.002,0.057-0.004,0.091
		C31.127,197.646,31.128,197.618,31.13,197.587 M31.154,196.992c-0.002,0.052-0.004,0.096-0.006,0.148
		C31.149,197.092,31.152,197.04,31.154,196.992 M31.178,196.422c-0.003,0.064-0.005,0.12-0.008,0.183
		C31.173,196.544,31.176,196.483,31.178,196.422 M31.204,195.875c-0.003,0.064-0.007,0.135-0.01,0.199
		C31.197,196.008,31.201,195.942,31.204,195.875 M31.23,195.341c-0.003,0.063-0.006,0.125-0.01,0.189
		C31.224,195.466,31.227,195.405,31.23,195.341 M31.259,194.803c-0.003,0.063-0.007,0.128-0.01,0.191
		C31.252,194.93,31.255,194.866,31.259,194.803 M31.289,194.269c-0.003,0.058-0.007,0.121-0.01,0.179
		C31.282,194.386,31.285,194.329,31.289,194.269 M31.32,193.735c-0.003,0.058-0.007,0.111-0.01,0.169
		C31.313,193.848,31.317,193.79,31.32,193.735 M31.353,193.207c-0.003,0.04-0.005,0.082-0.008,0.122
		C31.348,193.289,31.35,193.246,31.353,193.207 M31.388,192.671c-0.002,0.029-0.003,0.046-0.005,0.075
		C31.385,192.72,31.386,192.698,31.388,192.671 M31.507,190.998c-0.001,0.011-0.002,0.027-0.003,0.039
		C31.505,191.024,31.506,191.011,31.507,190.998 M31.553,190.412c-0.002,0.029-0.005,0.064-0.007,0.092
		C31.548,190.472,31.551,190.443,31.553,190.412 M31.598,189.86c-0.003,0.034-0.006,0.072-0.009,0.107
		C31.592,189.93,31.595,189.897,31.598,189.86 M31.644,189.318c-0.003,0.04-0.006,0.07-0.009,0.11
		C31.637,189.391,31.64,189.355,31.644,189.318 M31.69,188.785c-0.003,0.034-0.006,0.063-0.009,0.098
		C31.684,188.851,31.687,188.816,31.69,188.785 M31.739,188.246c-0.003,0.029-0.006,0.063-0.008,0.091
		C31.734,188.306,31.736,188.278,31.739,188.246 M31.789,187.718c-0.002,0.017-0.004,0.042-0.006,0.059
		C31.785,187.756,31.787,187.739,31.789,187.718 M31.84,187.188l-0.001,0.009C31.84,187.191,31.839,187.193,31.84,187.188
		 M74.792,89.185c-0.09,0.101-0.188,0.211-0.278,0.313C74.608,89.395,74.7,89.29,74.792,89.185 M84.493,79.122
		c-0.055,0.052-0.103,0.099-0.158,0.152C84.388,79.223,84.44,79.173,84.493,79.122 M84.868,78.765
		c-0.075,0.071-0.143,0.136-0.217,0.207C84.723,78.903,84.795,78.834,84.868,78.765 M300.98,60.385
		c0.068,0.045,0.137,0.092,0.204,0.138C301.117,60.477,301.048,60.43,300.98,60.385 M209.447,31.072
		c16.273,0.467,31.987,3.179,46.833,7.836c16.006,5.014,31.01,12.284,44.645,21.44C274.644,42.694,243.258,32.042,209.447,31.072
		 M208.619,31.05c0.276,0.007,0.551,0.014,0.827,0.022C209.17,31.064,208.896,31.057,208.619,31.05 M208.21,31.041
		c0.125,0.003,0.249,0.006,0.374,0.008C208.458,31.046,208.335,31.043,208.21,31.041 M207.371,31.025
		c0.266,0.005,0.533,0.01,0.798,0.015C207.902,31.034,207.639,31.029,207.371,31.025 M206.951,31.018
		c0.118,0.002,0.236,0.004,0.354,0.006C207.185,31.021,207.07,31.02,206.951,31.018 M206.507,31.012
		c0.132,0.002,0.265,0.003,0.397,0.005C206.771,31.015,206.639,31.014,206.507,31.012 M206.115,31.008
		c0.116,0.001,0.231,0.002,0.347,0.004C206.345,31.01,206.231,31.009,206.115,31.008 M205.679,31.004
		c0.119,0.001,0.238,0.002,0.357,0.003C205.916,31.006,205.799,31.005,205.679,31.004 M205.253,31.001
		c0.13,0.001,0.258,0.001,0.388,0.002C205.511,31.003,205.383,31.002,205.253,31.001 M204.868,31c0.1,0,0.2,0.001,0.3,0.001
		C205.068,31.001,204.969,31,204.868,31 M204.379,30.999c-46.285,0-88.336,18.138-119.428,47.687
		c23.033-21.885,52.068-37.513,84.389-44.138C180.659,32.22,192.379,30.999,204.379,30.999c0.127,0,0.252,0,0.379,0
		C204.632,30.999,204.505,30.999,204.379,30.999"/>
	<path style="fill:#BA3D20;" d="M204.379,30.999c-11.999,0-23.72,1.221-35.04,3.549c-32.321,6.624-61.356,22.253-84.389,44.138
		c-0.027,0.026-0.055,0.053-0.083,0.079c-0.073,0.069-0.145,0.138-0.217,0.207c-0.051,0.049-0.106,0.101-0.157,0.15
		c-0.053,0.051-0.105,0.101-0.158,0.152c-3.31,3.177-6.493,6.483-9.543,9.911c-0.092,0.105-0.184,0.21-0.278,0.313
		c-23.518,26.563-39.005,60.387-42.674,97.69c-0.001,0.005,0,0.004-0.001,0.009c-0.017,0.177-0.034,0.345-0.05,0.521
		c-0.002,0.021-0.004,0.038-0.006,0.059c-0.015,0.16-0.029,0.31-0.044,0.469c-0.003,0.031-0.005,0.06-0.008,0.091
		c-0.014,0.148-0.027,0.299-0.04,0.447c-0.003,0.031-0.006,0.066-0.009,0.098c-0.013,0.143-0.026,0.293-0.038,0.436
		c-0.003,0.037-0.006,0.073-0.009,0.11c-0.012,0.143-0.024,0.289-0.036,0.432c-0.003,0.037-0.006,0.07-0.009,0.107
		c-0.012,0.149-0.024,0.296-0.036,0.445c-0.003,0.032-0.005,0.061-0.007,0.092c-0.013,0.166-0.026,0.328-0.038,0.494
		c-0.001,0.013-0.002,0.026-0.003,0.039c-0.041,0.545-0.08,1.088-0.117,1.634c-0.002,0.026-0.003,0.049-0.005,0.075
		c-0.01,0.149-0.02,0.311-0.03,0.46c-0.003,0.04-0.005,0.082-0.008,0.122c-0.009,0.138-0.017,0.268-0.025,0.406
		c-0.003,0.055-0.007,0.113-0.01,0.169c-0.007,0.121-0.014,0.244-0.021,0.365c-0.003,0.061-0.007,0.118-0.01,0.179
		c-0.007,0.121-0.013,0.234-0.02,0.355c-0.003,0.064-0.007,0.128-0.01,0.191c-0.006,0.115-0.012,0.232-0.018,0.347
		c-0.003,0.064-0.006,0.125-0.01,0.189c-0.006,0.115-0.011,0.23-0.017,0.346c-0.003,0.066-0.006,0.132-0.01,0.199
		c-0.005,0.116-0.011,0.232-0.016,0.348c-0.003,0.061-0.006,0.122-0.008,0.183c-0.006,0.127-0.011,0.26-0.017,0.387
		c-0.002,0.048-0.004,0.1-0.006,0.148c-0.006,0.145-0.012,0.302-0.018,0.446c-0.001,0.032-0.002,0.059-0.004,0.091
		c-0.007,0.18-0.014,0.364-0.02,0.543c0,0.013-0.001,0.028-0.001,0.041c-0.006,0.168-0.011,0.33-0.017,0.499
		c-0.002,0.048-0.003,0.095-0.004,0.143c-0.004,0.133-0.008,0.259-0.012,0.392c-0.002,0.061-0.003,0.123-0.005,0.184
		c-0.003,0.122-0.006,0.233-0.01,0.355c-0.002,0.067-0.003,0.136-0.005,0.203c-0.003,0.11-0.005,0.216-0.008,0.327
		c-0.002,0.075-0.003,0.153-0.005,0.228c-0.002,0.105-0.004,0.207-0.006,0.312c-0.002,0.077-0.003,0.151-0.004,0.229
		c-0.002,0.105-0.004,0.206-0.005,0.311c-0.001,0.075-0.003,0.154-0.004,0.229c-0.002,0.105-0.003,0.208-0.004,0.312
		c-0.001,0.078-0.002,0.152-0.003,0.229c-0.001,0.099-0.002,0.207-0.003,0.306c-0.001,0.078-0.002,0.157-0.002,0.235
		c-0.001,0.105-0.002,0.215-0.003,0.32c-0.001,0.072-0.001,0.145-0.002,0.217c-0.001,0.117-0.001,0.236-0.002,0.353
		c0,0.062-0.001,0.124-0.001,0.186c-0.001,0.181-0.001,0.357-0.001,0.538l0,0l0,0c0,0.175,0,0.346,0.001,0.521
		c0,0.019,0,0.04,0,0.059c0.001,0.169,0.001,0.329,0.002,0.498c0,0.026,0,0.052,0,0.078c0.001,0.163,0.002,0.322,0.004,0.485
		c0,0.029,0.001,0.059,0.001,0.088c0.002,0.163,0.003,0.33,0.005,0.493c0,0.016,0,0.037,0.001,0.053
		c0.005,0.355,0.01,0.713,0.017,1.068c0,0.006,0,0.015,0,0.022c0.003,0.175,0.007,0.344,0.011,0.519
		c0,0.016,0.001,0.041,0.001,0.057c0.004,0.174,0.008,0.341,0.012,0.516c0,0.013,0.001,0.027,0.001,0.039
		c0.004,0.174,0.009,0.348,0.014,0.523c0,0.013,0.001,0.025,0.001,0.038c0.01,0.366,0.022,0.724,0.035,1.09l0,0
		c0.006,0.185,0.013,0.365,0.02,0.551c0,0.003,0,0.006,0,0.009c0.007,0.185,0.014,0.36,0.022,0.546c0,0.003,0,0.011,0.001,0.014
		c1.86,45.173,21.002,85.875,50.99,115.689c0.009,0.008,0.02,0.019,0.028,0.028c0.108,0.107,0.217,0.215,0.325,0.322
		c0.028,0.027,0.058,0.057,0.086,0.085c0.077,0.076,0.156,0.154,0.233,0.23c0.066,0.065,0.135,0.133,0.201,0.198
		c0.039,0.038,0.075,0.073,0.114,0.111c3.006,2.941,6.121,5.775,9.334,8.493c-25.53-30.2-40.919-69.239-40.919-111.88
		c0-95.751,77.619-173.37,173.379-173.37c42.631,0,81.68,15.39,111.87,40.919c-10.324-12.208-22.309-22.97-35.604-31.936
		c-0.068-0.046-0.137-0.092-0.204-0.138c-0.02-0.013-0.035-0.023-0.055-0.037c-13.635-9.156-28.639-16.426-44.645-21.44
		c-14.846-4.657-30.56-7.369-46.833-7.836h-0.001c-0.276-0.008-0.551-0.015-0.827-0.022c-0.01,0-0.026-0.001-0.036-0.001
		c-0.125-0.003-0.249-0.006-0.374-0.008c-0.013,0-0.027-0.001-0.04-0.001c-0.266-0.006-0.532-0.011-0.798-0.015
		c-0.019,0-0.047-0.001-0.067-0.001c-0.118-0.002-0.236-0.004-0.354-0.006c-0.016,0-0.031,0-0.047-0.001
		c-0.132-0.002-0.265-0.004-0.397-0.005c-0.013,0-0.032,0-0.045-0.001c-0.116-0.001-0.231-0.003-0.347-0.004
		c-0.026,0-0.053-0.001-0.079-0.001c-0.119-0.001-0.238-0.002-0.357-0.003c-0.013,0-0.025,0-0.038,0
		c-0.13-0.001-0.258-0.002-0.388-0.002c-0.029,0-0.056,0-0.085,0c-0.1,0-0.2-0.001-0.3-0.001c-0.036,0-0.075,0-0.111,0
		C204.631,30.999,204.506,30.999,204.379,30.999"/>
</g>
</svg>